<?xml version="1.0" encoding="utf-8"?>
<!-- Generator: Adobe Illustrator 27.5.0, SVG Export Plug-In . SVG Version: 6.00 Build 0)  -->
<svg version="1.1" xmlns="http://www.w3.org/2000/svg" xmlns:xlink="http://www.w3.org/1999/xlink" x="0px" y="0px"
	 viewBox="0 0 500 500" style="enable-background:new 0 0 500 500;" xml:space="preserve">
<g id="Background_Complete">
	<g>
		<g>
			<g>
				<g>
					<g>
						<g>
							<g>
								<g>
									<g>
										<polygon style="fill:#FFFFFF;" points="107.004,219.501 124.521,199.421 130.278,226.183 151.263,225.894 
											136.225,249.619 158.246,263.105 130.971,262.352 123.144,285.756 103.844,266.274 81.333,281.257 83.424,257.543 
											59.311,253.248 76.435,241.515 67.555,221.629 87.136,225.706 90.124,199.613 										"/>
									</g>
									<g>
										<g>
											<path style="fill:#E0E0E0;" d="M107.004,219.501c0,0-0.379-0.423-1.118-1.281c-0.748-0.871-1.845-2.148-3.279-3.817
												c-2.894-3.384-7.139-8.347-12.58-14.708l0.225-0.068c-0.813,7.212-1.807,16.034-2.941,26.098l-0.022,0.191l-0.188-0.039
												c-5.961-1.233-12.564-2.599-19.586-4.052l0.224-0.278c2.79,6.231,5.773,12.894,8.899,19.877l0.075,0.168l-0.152,0.104
												c-5.413,3.715-11.165,7.662-17.115,11.745l-0.092-0.426c7.66,1.36,15.765,2.799,24.115,4.282l0.224,0.04l-0.02,0.227
												c-0.662,7.537-1.365,15.537-2.083,23.715l-0.397-0.236c7.199-4.793,14.784-9.844,22.508-14.987l0.178-0.119l0.151,0.152
												c2.013,2.032,4.178,4.217,6.355,6.415c4.366,4.408,8.685,8.768,12.943,13.067l-0.43,0.1
												c2.665-7.965,5.28-15.776,7.832-23.402l0.06-0.179l0.188,0.005c9.379,0.263,18.486,0.518,27.275,0.764l-0.134,0.451
												c-7.65-4.692-14.993-9.195-22.012-13.499l-0.198-0.121l0.124-0.195c5.342-8.411,10.375-16.337,15.059-23.711l0.174,0.312
												c-7.582,0.095-14.542,0.182-20.985,0.263l-0.146,0.002l-0.03-0.142c-2.227-10.445-4.134-19.384-5.709-26.772l0.222,0.057
												c-5.697,6.481-10.102,11.492-13.091,14.893c-1.481,1.678-2.61,2.957-3.378,3.826
												C107.39,219.081,107.004,219.501,107.004,219.501s0.387-0.466,1.142-1.345c0.762-0.884,1.883-2.184,3.353-3.89
												c2.952-3.41,7.3-8.433,12.925-14.93l0.168-0.194l0.055,0.251c1.602,7.382,3.54,16.315,5.805,26.751l-0.176-0.14
												c6.442-0.096,13.403-0.201,20.984-0.314l0.375-0.006l-0.201,0.318c-4.671,7.383-9.69,15.317-15.017,23.738l-0.074-0.316
												c7.024,4.296,14.373,8.79,22.029,13.473l0.779,0.476l-0.913-0.025c-8.788-0.239-17.896-0.487-27.275-0.743l0.248-0.173
												c-2.549,7.627-5.16,15.44-7.822,23.405l-0.134,0.4l-0.297-0.299c-4.259-4.299-8.579-8.659-12.945-13.066
												c-2.177-2.198-4.342-4.383-6.355-6.415l0.329,0.034c-7.726,5.141-15.313,10.189-22.513,14.98l-0.444,0.295l0.047-0.531
												c0.724-8.177,1.432-16.177,2.098-23.714l0.204,0.266c-8.348-1.491-16.452-2.939-24.11-4.307l-0.567-0.101l0.475-0.325
												c5.956-4.074,11.714-8.014,17.132-11.721l-0.077,0.272c-3.113-6.989-6.083-13.657-8.862-19.894l-0.16-0.358l0.383,0.08
												c7.019,1.47,13.618,2.853,19.576,4.101l-0.21,0.152c1.17-10.059,2.196-18.878,3.035-26.087l0.034-0.295l0.191,0.227
												c5.369,6.376,9.558,11.351,12.414,14.742c1.423,1.697,2.512,2.995,3.254,3.88
												C106.625,219.032,107.004,219.501,107.004,219.501z"/>
										</g>
									</g>
								</g>
							</g>
						</g>
					</g>
				</g>
			</g>
		</g>
		<g>
			<g>
				<g>
					<g>
						<path style="fill:#E0E0E0;" d="M100.31,231.177l0.541,12.553c0.044,1.027,0.847,1.859,1.871,1.941l0,0
							c1.08,0.086,2.038-0.69,2.179-1.764l1.646-12.572c0.125-0.952-0.613-1.798-1.573-1.804l-3.059-0.019
							C101.002,229.506,100.271,230.265,100.31,231.177z"/>
					</g>
				</g>
			</g>
			<g>
				<g>
					<g>
						<path style="fill:#E0E0E0;" d="M105.904,252.79c-0.565,1.593-2.314,2.427-3.907,1.862c-1.593-0.565-2.427-2.314-1.862-3.907
							c0.565-1.593,2.314-2.427,3.907-1.862C105.635,249.447,106.468,251.196,105.904,252.79z"/>
					</g>
				</g>
			</g>
		</g>
		<g>
			<g>
				<g>
					<g>
						<path style="fill:#E0E0E0;" d="M110.872,231.39l0.541,12.553c0.044,1.027,0.847,1.859,1.871,1.941l0,0
							c1.08,0.086,2.039-0.69,2.179-1.764l1.645-12.572c0.125-0.952-0.613-1.798-1.573-1.804l-3.059-0.019
							C111.564,229.719,110.832,230.478,110.872,231.39z"/>
					</g>
				</g>
			</g>
			<g>
				<g>
					<g>
						<path style="fill:#E0E0E0;" d="M116.466,253.002c-0.565,1.593-2.314,2.427-3.907,1.862c-1.593-0.565-2.427-2.314-1.862-3.907
							c0.565-1.593,2.314-2.427,3.907-1.862C116.196,249.66,117.03,251.409,116.466,253.002z"/>
					</g>
				</g>
			</g>
		</g>
	</g>
	<g>
		<g>
			<g>
				<g>
					<g>
						<g>
							<g>
								<g>
									<g>
										<polygon style="fill:#FFFFFF;" points="408.849,201.399 398.375,187.075 393.025,204.502 379.119,203.11 387.74,219.711 
											372.359,227.399 390.498,228.459 394.353,244.434 408.271,232.612 422.35,243.84 422.319,227.987 438.562,226.516 
											427.872,217.753 434.901,205.067 421.676,206.652 421.186,189.169 										"/>
									</g>
									<g>
										<g>
											<path style="fill:#E0E0E0;" d="M408.849,201.4c0,0,0.279-0.298,0.817-0.843c0.549-0.554,1.343-1.355,2.377-2.399
												c2.09-2.096,5.142-5.157,9.052-9.079l0.209-0.21l0.009,0.297c0.149,4.833,0.33,10.742,0.538,17.481l-0.196-0.169
												c4.025-0.49,8.482-1.033,13.222-1.61l0.389-0.047l-0.19,0.343c-2.198,3.98-4.548,8.235-7.011,12.695l-0.053-0.278
												c3.384,2.768,6.98,5.71,10.699,8.752l0.446,0.365l-0.574,0.052c-5.159,0.471-10.618,0.969-16.242,1.483l0.226-0.248
												c0.012,5.038,0.026,10.387,0.039,15.853l0.001,0.533l-0.417-0.332c-4.504-3.59-9.249-7.373-14.081-11.225l0.33-0.005
												c-1.452,1.233-3.013,2.559-4.583,3.893c-3.149,2.674-6.264,5.32-9.336,7.928l-0.321,0.273l-0.099-0.41
												c-1.31-5.437-2.595-10.77-3.85-15.976l0.232,0.194c-6.238-0.368-12.294-0.725-18.139-1.07l-0.912-0.054l0.817-0.407
												c5.348-2.667,10.481-5.227,15.388-7.674l-0.1,0.309c-3.05-5.893-5.924-11.445-8.599-16.612l-0.173-0.334l0.373,0.038
												c5.023,0.512,9.634,0.982,13.903,1.417l-0.187,0.124c2.105-6.791,3.907-12.604,5.397-17.412l0.076-0.246l0.15,0.208
												c3.344,4.629,5.931,8.208,7.693,10.648c0.872,1.215,1.538,2.142,1.997,2.783C408.62,201.06,408.849,201.4,408.849,201.4
												s-0.233-0.293-0.688-0.901c-0.466-0.626-1.142-1.534-2.027-2.722c-1.801-2.435-4.445-6.007-7.862-10.626l0.226-0.038
												c-1.464,4.816-3.235,10.639-5.303,17.441l-0.042,0.139l-0.145-0.014c-4.271-0.419-8.884-0.872-13.909-1.366l0.2-0.296
												c2.688,5.16,5.577,10.704,8.643,16.589l0.107,0.205l-0.207,0.104c-4.902,2.456-10.031,5.026-15.374,7.702l-0.095-0.461
												c5.845,0.338,11.902,0.688,18.14,1.049l0.188,0.011l0.044,0.183c1.258,5.205,2.546,10.537,3.86,15.974l-0.42-0.137
												c3.071-2.609,6.186-5.255,9.335-7.93c1.57-1.333,3.132-2.66,4.583-3.893l0.163-0.139l0.167,0.134
												c4.83,3.854,9.574,7.639,14.076,11.231l-0.416,0.201c-0.008-5.467-0.016-10.815-0.023-15.853l0-0.227l0.226-0.02
												c5.625-0.505,11.084-0.995,16.244-1.458l-0.128,0.417c-3.713-3.05-7.302-5.999-10.681-8.775l-0.143-0.117l0.089-0.161
												c2.476-4.453,4.837-8.702,7.047-12.676l0.199,0.296c-4.742,0.559-9.201,1.085-13.228,1.56l-0.191,0.023l-0.005-0.192
												c-0.171-6.74-0.321-12.65-0.443-17.484l0.218,0.087c-3.98,3.901-7.088,6.946-9.215,9.031
												c-1.043,1.016-1.844,1.795-2.397,2.334C409.124,201.148,408.849,201.4,408.849,201.4z"/>
										</g>
									</g>
								</g>
							</g>
						</g>
					</g>
				</g>
			</g>
		</g>
		<g>
			<g>
				<g>
					<g>
						<path style="fill:#E0E0E0;" d="M412.623,209.529l-1.077,8.298c-0.088,0.679-0.668,1.185-1.352,1.181l0,0
							c-0.722-0.005-1.313-0.574-1.345-1.295l-0.373-8.435c-0.028-0.639,0.51-1.158,1.147-1.107l2.031,0.162
							C412.259,208.38,412.701,208.926,412.623,209.529z"/>
					</g>
				</g>
			</g>
			<g>
				<g>
					<g>
						<path style="fill:#E0E0E0;" d="M407.676,223.548c0.284,1.089,1.397,1.742,2.486,1.459c1.089-0.283,1.743-1.396,1.459-2.486
							c-0.283-1.089-1.396-1.742-2.486-1.459C408.046,221.346,407.392,222.459,407.676,223.548z"/>
					</g>
				</g>
			</g>
		</g>
		<g>
			<g>
				<g>
					<g>
						<path style="fill:#E0E0E0;" d="M405.603,209.066l-1.077,8.298c-0.088,0.679-0.668,1.185-1.352,1.181l0,0
							c-0.722-0.005-1.313-0.574-1.345-1.295l-0.373-8.435c-0.028-0.639,0.51-1.158,1.147-1.107l2.031,0.162
							C405.24,207.918,405.682,208.463,405.603,209.066z"/>
					</g>
				</g>
			</g>
			<g>
				<g>
					<g>
						<path style="fill:#E0E0E0;" d="M400.656,223.085c0.284,1.089,1.397,1.742,2.486,1.459c1.089-0.284,1.743-1.396,1.459-2.486
							c-0.284-1.089-1.397-1.742-2.486-1.459C401.026,220.883,400.373,221.996,400.656,223.085z"/>
					</g>
				</g>
			</g>
		</g>
	</g>
	<g>
		<ellipse style="fill:#E0E0E0;" cx="262.009" cy="475.94" rx="129.024" ry="7.353"/>
	</g>
	<g>
		<g>
			<g>
				<g>
					<g>
						<g>
							
								<rect x="245.873" y="33.761" transform="matrix(1 -0.0012 0.0012 1 -0.051 0.2937)" style="fill:#E0E0E0;" width="13.066" height="20.524"/>
						</g>
					</g>
				</g>
				<g>
					<g>
						<g>
							<path style="fill:#EBEBEB;" d="M265.941,39.883l-26.913,0.031l-0.026-22.122c9.419-2.347,18.417-2.501,26.913-0.031
								L265.941,39.883z"/>
						</g>
					</g>
				</g>
			</g>
			<g>
				<g>
					<g>
						<g>
							<path style="fill:#E0E0E0;" d="M266.232,17.854c0.013,0.029-0.341,0.204-0.992,0.497c-0.648,0.301-1.616,0.668-2.833,1.053
								c-1.216,0.394-2.698,0.754-4.363,1.047c-1.669,0.269-3.523,0.455-5.475,0.476c-1.953,0.003-3.81-0.162-5.482-0.41
								c-1.669-0.273-3.155-0.615-4.376-0.994c-1.222-0.371-2.194-0.726-2.845-1.019c-0.655-0.284-1.01-0.455-0.998-0.485
								c0.032-0.081,1.486,0.532,3.931,1.19c1.22,0.336,2.697,0.641,4.35,0.888c1.656,0.222,3.489,0.372,5.417,0.369
								c1.928-0.02,3.758-0.192,5.411-0.434c1.649-0.266,3.122-0.589,4.338-0.94C264.752,18.404,266.199,17.774,266.232,17.854z"/>
						</g>
					</g>
				</g>
			</g>
			<g>
				<g>
					<g>
						<g>
							<path style="fill:#E0E0E0;" d="M247.918,39.843c-0.127,0-0.234-4.247-0.24-9.484c-0.006-5.239,0.092-9.486,0.219-9.486
								c0.127,0,0.234,4.246,0.241,9.485C248.143,35.596,248.045,39.842,247.918,39.843z"/>
						</g>
					</g>
				</g>
			</g>
			<g>
				<g>
					<g>
						<g>
							<path style="fill:#E0E0E0;" d="M253.039,39.965c-0.127,0-0.235-4.266-0.241-9.527c-0.006-5.263,0.092-9.529,0.219-9.529
								c0.127,0,0.234,4.265,0.241,9.528C253.264,35.699,253.166,39.965,253.039,39.965z"/>
						</g>
					</g>
				</g>
			</g>
			<g>
				<g>
					<g>
						<g>
							<path style="fill:#E0E0E0;" d="M258.16,39.874c-0.127,0-0.234-4.266-0.241-9.527c-0.006-5.263,0.092-9.528,0.219-9.529
								c0.127,0,0.234,4.265,0.241,9.528C258.384,35.607,258.287,39.874,258.16,39.874z"/>
						</g>
					</g>
				</g>
			</g>
			<g>
				<g>
					<g>
						<g>
							<path style="fill:#E0E0E0;" d="M262.424,39.869c-0.127,0-0.235-4.611-0.242-10.298c-0.007-5.689,0.091-10.299,0.218-10.299
								c0.127,0,0.235,4.61,0.242,10.299C262.648,35.257,262.551,39.869,262.424,39.869z"/>
						</g>
					</g>
				</g>
			</g>
			<g>
				<g>
					<g>
						<g>
							<path style="fill:#E0E0E0;" d="M243.077,39.76c-0.127,0-0.235-4.611-0.242-10.298c-0.007-5.689,0.091-10.299,0.218-10.299
								c0.127,0,0.235,4.61,0.241,10.299C243.301,35.148,243.203,39.759,243.077,39.76z"/>
						</g>
					</g>
				</g>
			</g>
		</g>
		<g>
			<g>
				<g>
					<g>
						<g>
							<polygon style="fill:#E0E0E0;" points="322.718,77.212 316.182,70.344 326.831,60.078 333.367,66.946 							"/>
						</g>
					</g>
				</g>
				<g>
					<g>
						<g>
							<path style="fill:#EBEBEB;" d="M333.687,73.699l-13.462-14.147l11.478-11.066c5.925,3.784,10.5,8.442,13.462,14.147
								L333.687,73.699z"/>
						</g>
					</g>
				</g>
			</g>
		</g>
		<g>
			<g>
				<g>
					<g>
						<g>
							<polygon style="fill:#E0E0E0;" points="178.496,77.254 171.419,83.554 161.649,72.437 168.727,66.136 							"/>
						</g>
					</g>
				</g>
				<g>
					<g>
						<g>
							<path style="fill:#EBEBEB;" d="M175.443,66.082L160.865,79.06l-10.53-11.983c3.991-5.809,8.798-10.225,14.578-12.978
								L175.443,66.082z"/>
						</g>
					</g>
				</g>
			</g>
		</g>
		<g>
			<g>
				
					<ellipse transform="matrix(1 -0.0012 0.0012 1 -0.1762 0.2878)" style="fill:#EBEBEB;" cx="250" cy="153.218" rx="107.715" ry="108.415"/>
			</g>
		</g>
		<g>
			<g>
				
					<ellipse transform="matrix(1 -0.0011 0.0011 1 -0.1665 0.272)" style="fill:#FFFFFF;" cx="250" cy="153.218" rx="98.959" ry="99.602"/>
			</g>
			<g>
				<path style="fill:#E0E0E0;" d="M250.116,253.16c-54.753,0.064-99.349-44.718-99.413-99.826
					c-0.064-55.108,44.428-99.994,99.181-100.057c54.752-0.064,99.349,44.718,99.413,99.826
					C349.361,208.211,304.869,253.096,250.116,253.16z M249.885,53.957c-54.38,0.063-98.569,44.643-98.505,99.376
					c0.064,54.733,44.356,99.21,98.736,99.146c54.379-0.063,98.568-44.643,98.505-99.376
					C348.557,98.371,304.264,53.894,249.885,53.957z"/>
			</g>
		</g>
		<g>
			<g>
				<g>
					<g>
						<g>
							<polygon style="fill:#EBEBEB;" points="242.958,155.02 198.404,120.268 250.561,144.399 252.105,153.592 							"/>
						</g>
					</g>
				</g>
				<g>
					<g>
						<g>
							<polygon style="fill:#E0E0E0;" points="198.404,120.268 244.918,147.723 250.561,144.399 							"/>
						</g>
					</g>
				</g>
			</g>
			<g>
				<g>
					<g>
						<g>
							<g>
								<path style="fill:#FAFAFA;" d="M252.118,144.42c5.116-0.006,9.268,4.163,9.274,9.312c0.006,5.149-4.136,9.328-9.252,9.334
									c-5.116,0.006-9.267-4.163-9.273-9.312C242.86,148.605,247.002,144.426,252.118,144.42z"/>
							</g>
						</g>
					</g>
					<g>
						<g>
							<g>
								<g>
									<path style="fill:#E0E0E0;" d="M252.118,144.42c0.005,0.061-0.826,0.011-2.24,0.381c-1.386,0.366-3.421,1.306-4.991,3.408
										c-0.766,1.042-1.416,2.351-1.674,3.859c-0.248,1.497-0.196,3.185,0.416,4.789c0.281,0.807,0.705,1.585,1.239,2.3
										c0.524,0.723,1.173,1.379,1.925,1.919c1.482,1.117,3.384,1.744,5.344,1.761c1.96-0.02,3.862-0.652,5.341-1.772
										c0.751-0.542,1.399-1.2,1.921-1.924c0.533-0.716,0.954-1.495,1.234-2.303c0.608-1.605,0.657-3.294,0.405-4.79
										c-0.261-1.507-0.914-2.815-1.683-3.855c-1.574-2.099-3.611-3.033-4.998-3.396
										C252.944,144.429,252.114,144.481,252.118,144.42c0,0,0.827-0.117,2.283,0.202c1.426,0.316,3.547,1.226,5.211,3.372
										c0.813,1.063,1.509,2.414,1.798,3.981c0.28,1.556,0.243,3.319-0.381,5.004c-0.288,0.848-0.724,1.667-1.279,2.42
										c-0.544,0.761-1.22,1.454-2.006,2.025c-1.548,1.18-3.548,1.85-5.606,1.869c-2.057-0.015-4.057-0.681-5.608-1.857
										c-0.787-0.57-1.465-1.26-2.01-2.02c-0.556-0.752-0.995-1.57-1.284-2.417c-0.628-1.684-0.669-3.446-0.393-5.003
										c0.285-1.568,0.978-2.92,1.789-3.986c1.659-2.151,3.778-3.065,5.204-3.385C251.29,144.305,252.118,144.42,252.118,144.42z"
										/>
								</g>
							</g>
						</g>
					</g>
				</g>
				<g>
					<g>
						<g>
							<g>
								<path style="fill:#E0E0E0;" d="M252.121,146.804c3.807-0.004,6.898,3.098,6.902,6.931c0.004,3.832-3.079,6.942-6.886,6.947
									c-3.807,0.004-6.898-3.098-6.902-6.931C245.231,149.919,248.313,146.809,252.121,146.804z"/>
							</g>
						</g>
					</g>
				</g>
			</g>
			<g>
				<g>
					<path style="fill:#E0E0E0;" d="M251.671,151.009c0,0-1.968-60.028,0.775-72.692
						C252.446,78.317,257.103,114.703,251.671,151.009z"/>
				</g>
			</g>
		</g>
		<g>
			<g>
				<path style="fill:#E0E0E0;" d="M246.387,245.298l-0.119-0.005l0.257-7.484l0.211,0.009L246.387,245.298z M283.511,239.186
					l-2.787-6.943l0.207-0.083l2.68,6.988L283.511,239.186z M209.859,235.698l-0.112-0.057l3.302-6.711l0.183,0.093L209.859,235.698
					z M315.031,218.351l-5.312-5.244l0.139-0.141l5.267,5.289L315.031,218.351z M180.404,211.991l-0.112-0.137l5.762-4.739
					l0.098,0.12L180.404,211.991z M335.469,186.411l-6.978-2.602l0.073-0.195l6.949,2.681L335.469,186.411z M163.041,178.272
					l-0.052-0.192l7.19-1.93l0.035,0.128L163.041,178.272z M333.762,149.29l-0.007-0.12l7.427-0.459l0.012,0.212L333.762,149.29z
					 M333.756,149.155l-0.01-0.165l7.427-0.459l0.01,0.167L333.756,149.155z M168.169,141.47l-7.358-1.113l0.025-0.168l7.357,1.12
					L168.169,141.47z M324.611,115.513l-0.071-0.138l6.606-3.447l0.08,0.156L324.611,115.513z M180.369,108.845l-6.264-4.043
					l0.083-0.13l6.277,4.022L180.369,108.845z M302.651,88.566l-0.129-0.104l4.641-5.854l0.129,0.104L302.651,88.566z
					 M204.684,84.013l-4.083-6.261l0.112-0.074l4.135,6.227L204.684,84.013z M271.695,72.882l-0.139-0.036l1.858-7.252l0.182,0.048
					L271.695,72.882z M236.94,71.29l-1.217-7.388l0.166-0.028l1.21,7.389L236.94,71.29z"/>
				<path style="fill:#E0E0E0;" d="M246.387,245.548c-0.003,0-0.007,0-0.01,0l-0.119-0.005c-0.137-0.006-0.244-0.121-0.24-0.259
					l0.257-7.484c0.002-0.066,0.031-0.129,0.08-0.175c0.049-0.045,0.125-0.063,0.181-0.066l0.211,0.01
					c0.066,0.002,0.129,0.032,0.174,0.081c0.045,0.049,0.068,0.114,0.065,0.18l-0.349,7.48
					C246.63,245.443,246.52,245.548,246.387,245.548z M283.511,239.436c-0.1,0-0.193-0.06-0.232-0.157l-2.786-6.944
					c-0.024-0.062-0.023-0.131,0.003-0.192c0.026-0.061,0.075-0.109,0.137-0.134l0.207-0.083c0.064-0.024,0.132-0.023,0.193,0.003
					c0.06,0.027,0.108,0.077,0.133,0.14l2.68,6.987c0.05,0.128-0.015,0.272-0.143,0.322l-0.101,0.039
					C283.572,239.43,283.542,239.436,283.511,239.436z M209.858,235.948c-0.039,0-0.078-0.009-0.114-0.027l-0.112-0.057
					c-0.121-0.062-0.171-0.21-0.11-0.333l3.302-6.711c0.029-0.06,0.082-0.105,0.145-0.127c0.064-0.02,0.133-0.015,0.192,0.014
					l0.183,0.093c0.123,0.063,0.172,0.213,0.11,0.336l-3.373,6.675c-0.03,0.059-0.083,0.105-0.146,0.125
					C209.911,235.944,209.884,235.948,209.858,235.948z M315.031,218.601c-0.065,0-0.129-0.026-0.176-0.072l-5.313-5.244
					c-0.098-0.097-0.1-0.255-0.002-0.354l0.139-0.14c0.047-0.048,0.11-0.075,0.177-0.075c0.001,0,0.001,0,0.001,0
					c0.066,0,0.13,0.026,0.177,0.074l5.268,5.289c0.097,0.097,0.098,0.254,0.001,0.352l-0.094,0.095
					C315.162,218.574,315.099,218.6,315.031,218.601z M180.404,212.241c-0.008,0-0.016-0.001-0.024-0.001
					c-0.066-0.007-0.127-0.04-0.169-0.091l-0.111-0.137c-0.087-0.106-0.071-0.263,0.035-0.351l5.761-4.739
					c0.052-0.042,0.119-0.061,0.184-0.056c0.066,0.006,0.127,0.039,0.169,0.09l0.098,0.12c0.087,0.106,0.071,0.263-0.035,0.351
					l-5.748,4.756C180.518,212.221,180.462,212.241,180.404,212.241z M335.469,186.661c-0.029,0-0.059-0.005-0.087-0.016
					l-6.978-2.602c-0.13-0.048-0.195-0.192-0.147-0.321l0.072-0.195c0.023-0.063,0.07-0.113,0.132-0.141
					c0.06-0.027,0.128-0.03,0.192-0.005l6.949,2.681c0.128,0.05,0.192,0.193,0.144,0.322l-0.044,0.116
					C335.666,186.6,335.57,186.661,335.469,186.661z M163.041,178.522c-0.043,0-0.086-0.011-0.124-0.033
					c-0.058-0.033-0.1-0.087-0.118-0.152l-0.052-0.192c-0.018-0.064-0.009-0.132,0.024-0.19s0.088-0.1,0.152-0.117l7.19-1.929
					c0.135-0.036,0.271,0.043,0.306,0.176l0.035,0.128c0.036,0.132-0.042,0.269-0.174,0.306l-7.172,1.994
					C163.086,178.519,163.064,178.522,163.041,178.522z M333.762,149.54c-0.132,0-0.242-0.103-0.25-0.236l-0.007-0.12
					c0-0.007,0-0.014,0-0.021l-0.01-0.159c-0.008-0.137,0.097-0.256,0.234-0.264l7.427-0.459c0.16-0.01,0.257,0.096,0.265,0.233
					l0.011,0.168c0.001,0.007,0.001,0.014,0.001,0.021l0.012,0.206c0.003,0.066-0.02,0.131-0.065,0.181
					c-0.044,0.049-0.106,0.079-0.173,0.082l-7.433,0.367C333.77,149.54,333.766,149.54,333.762,149.54z M168.169,141.72
					c-0.012,0-0.025-0.001-0.038-0.003l-7.358-1.113c-0.065-0.01-0.125-0.045-0.164-0.099c-0.039-0.054-0.056-0.12-0.046-0.186
					l0.025-0.167c0.01-0.065,0.045-0.124,0.099-0.164c0.053-0.04,0.12-0.057,0.186-0.046l7.357,1.12
					c0.136,0.021,0.23,0.148,0.21,0.284l-0.024,0.161c-0.01,0.066-0.045,0.125-0.099,0.165
					C168.275,141.703,168.222,141.72,168.169,141.72z M324.611,115.763c-0.025,0-0.051-0.004-0.075-0.012
					c-0.064-0.02-0.116-0.064-0.147-0.123l-0.071-0.138c-0.064-0.122-0.016-0.272,0.107-0.336l6.606-3.447
					c0.058-0.029,0.126-0.036,0.191-0.017c0.064,0.021,0.116,0.065,0.147,0.125l0.08,0.156c0.063,0.122,0.015,0.272-0.107,0.336
					l-6.615,3.429C324.69,115.754,324.651,115.763,324.611,115.763z M180.369,109.095c-0.048,0-0.095-0.014-0.136-0.04l-6.264-4.042
					c-0.115-0.075-0.149-0.229-0.075-0.344l0.083-0.129c0.036-0.056,0.092-0.096,0.157-0.11c0.063-0.014,0.132-0.002,0.188,0.034
					l6.277,4.022c0.116,0.074,0.15,0.229,0.076,0.345l-0.096,0.15c-0.036,0.056-0.093,0.095-0.158,0.109
					C180.404,109.093,180.386,109.095,180.369,109.095z M302.651,88.816c-0.057,0-0.112-0.019-0.156-0.055l-0.129-0.104
					c-0.108-0.086-0.125-0.243-0.04-0.35l4.642-5.854c0.042-0.052,0.103-0.086,0.168-0.093c0.072-0.008,0.134,0.012,0.185,0.054
					l0.129,0.104c0.107,0.086,0.125,0.243,0.04,0.35l-4.642,5.854c-0.042,0.052-0.103,0.086-0.168,0.093
					C302.67,88.815,302.66,88.816,302.651,88.816z M204.684,84.263c-0.017,0-0.034-0.002-0.05-0.005
					c-0.065-0.013-0.122-0.052-0.159-0.108l-4.083-6.261c-0.075-0.115-0.043-0.269,0.072-0.345l0.112-0.074
					c0.115-0.077,0.27-0.045,0.346,0.07l4.135,6.227c0.076,0.115,0.045,0.27-0.07,0.346l-0.163,0.108
					C204.781,84.249,204.733,84.263,204.684,84.263z M271.695,73.133c-0.021,0-0.042-0.002-0.064-0.008l-0.14-0.037
					c-0.133-0.035-0.213-0.17-0.179-0.304l1.858-7.252c0.017-0.064,0.058-0.12,0.115-0.153c0.058-0.035,0.124-0.045,0.19-0.026
					l0.182,0.047c0.064,0.017,0.119,0.058,0.152,0.115c0.033,0.058,0.043,0.126,0.026,0.19l-1.9,7.241
					C271.907,73.058,271.806,73.133,271.695,73.133z M236.94,71.539c-0.052,0-0.103-0.016-0.146-0.047
					c-0.054-0.039-0.09-0.097-0.101-0.163l-1.217-7.388c-0.011-0.065,0.005-0.132,0.044-0.186c0.038-0.054,0.097-0.09,0.163-0.101
					l0.166-0.027c0.065-0.012,0.132,0.004,0.187,0.043c0.054,0.039,0.09,0.097,0.101,0.163l1.21,7.389
					c0.022,0.136-0.07,0.265-0.206,0.287l-0.159,0.026C236.967,71.538,236.954,71.539,236.94,71.539z"/>
			</g>
		</g>
	</g>
</g>
<g id="Background_Simple" style="display:none;">
	<g style="display:inline;">
		<path style="fill:#F5F5F5;" d="M395.965,101.217l-1.991-3.28c-16.781-27.653-47.121-44.323-79.108-42.3
			c-4.112,0.26-8.206,0.817-12.246,1.681c-29.084,6.225-54.39,28.219-64.879,56.386c-6.169,16.566-7.893,35.639-19.599,48.788
			c-15.236,17.113-41.102,17.65-63.844,16.941s-48.625-0.104-63.787,17.076c-9.496,10.76-12.513,26.061-11.748,40.47
			c2.027,38.149,28.61,72.261,62.417,89.216c33.807,16.955,73.611,18.474,110.611,11.015
			c51.832-10.448,101.124-39.142,130.753-83.461C412.172,209.431,419.671,149.051,395.965,101.217z"/>
	</g>
</g>
<g id="Floor">
	<g>
		<g>
			<path style="fill:#263238;" d="M467.184,461.749c0,0.144-97.244,0.26-217.174,0.26c-119.971,0-217.194-0.117-217.194-0.26
				s97.224-0.26,217.194-0.26C369.94,461.489,467.184,461.605,467.184,461.749z"/>
		</g>
	</g>
</g>
<g id="Plant">
	<g>
		<g>
			<g>
				<path style="fill:#455A64;" d="M383.713,436.418c-0.073-4.654,3.197-8.935,7.379-10.977s9.095-2.124,13.662-1.232
					c0.256,0.05,0.545,0.128,0.659,0.362c0.103,0.21,0.02,0.46-0.068,0.676c-1.616,3.981-4.765,7.317-8.646,9.16
					C392.818,436.251,387.819,437.682,383.713,436.418"/>
			</g>
		</g>
		<g>
			<g>
				<g>
					<path style="fill:#263238;" d="M396.836,428.063c-0.006-0.017-0.155,0.019-0.433,0.103c-0.276,0.09-0.692,0.204-1.206,0.407
						c-1.04,0.377-2.515,1.015-4.247,1.979c-3.456,1.901-7.912,5.355-11.313,10.407c-3.404,5.053-4.928,10.482-5.389,14.399
						c-0.242,1.967-0.278,3.574-0.237,4.679c0.005,0.553,0.056,0.981,0.077,1.271c0.027,0.29,0.049,0.441,0.067,0.44
						c0.042-0.002,0.036-0.613,0.059-1.711c0.021-1.099,0.113-2.689,0.399-4.628c0.549-3.864,2.107-9.187,5.456-14.159
						c3.346-4.971,7.691-8.417,11.065-10.379c1.69-0.994,3.128-1.678,4.139-2.11C396.281,428.326,396.85,428.103,396.836,428.063z"
						/>
				</g>
			</g>
		</g>
		<g>
			<g>
				<path style="fill:#455A64;" d="M381.072,444.848c1.746-3.433,5.794-5.302,9.644-5.179s7.476,1.962,10.474,4.381
					c0.168,0.135,0.349,0.304,0.342,0.52c-0.006,0.193-0.163,0.344-0.311,0.468c-2.722,2.288-6.316,3.512-9.868,3.36
					C387.8,448.246,383.589,447.361,381.072,444.848"/>
			</g>
		</g>
		<g>
			<g>
				<path style="fill:#455A64;" d="M375.515,443.573c-2.756-1.947-3.865-5.691-3.273-9.013c0.592-3.322,2.644-6.233,5.119-8.527
					c0.138-0.128,0.308-0.264,0.494-0.231c0.167,0.03,0.277,0.185,0.367,0.329c1.64,2.648,2.247,5.918,1.668,8.978
					C379.309,438.17,378.01,441.709,375.515,443.573"/>
			</g>
		</g>
		<g>
			<g>
				<g>
					<path style="fill:#263238;" d="M391.052,443.464c0.009-0.058-0.85-0.277-2.277-0.36c-1.423-0.083-3.426,0.029-5.538,0.625
						c-2.111,0.603-3.873,1.561-5.04,2.381c-1.171,0.822-1.786,1.46-1.747,1.504c0.099,0.159,2.792-2.223,6.929-3.384
						C387.508,443.042,391.051,443.651,391.052,443.464z"/>
				</g>
			</g>
		</g>
		<g>
			<g>
				<g>
					<path style="fill:#263238;" d="M376.095,434.172c-0.066-0.011-0.277,0.812-0.484,2.167c-0.207,1.355-0.391,3.245-0.414,5.339
						c-0.02,2.095,0.125,3.989,0.305,5.347c0.179,1.36,0.373,2.186,0.439,2.177c0.156-0.021-0.276-3.371-0.224-7.519
						C375.751,437.537,376.251,434.197,376.095,434.172z"/>
				</g>
			</g>
		</g>
	</g>
</g>
<g id="Lines">
	<g>
		<g>
			<g>
				<path style="fill:#263238;" d="M439.856,274.755c0,0.144-13.9,0.26-31.042,0.26c-17.148,0-31.044-0.117-31.044-0.26
					s13.896-0.26,31.044-0.26C425.956,274.494,439.856,274.611,439.856,274.755z"/>
			</g>
		</g>
		<g>
			<g>
				<path style="fill:#263238;" d="M427.426,285.741c0,0.144-13.9,0.26-31.042,0.26c-17.148,0-31.044-0.117-31.044-0.26
					c0-0.144,13.896-0.26,31.044-0.26C413.526,285.481,427.426,285.598,427.426,285.741z"/>
			</g>
		</g>
	</g>
	<g>
		<g>
			<g>
				<path style="fill:#263238;" d="M268.202,407.703c0,0.144-14.741,0.26-32.921,0.26c-18.186,0-32.924-0.117-32.924-0.26
					s14.738-0.26,32.924-0.26C253.461,407.443,268.202,407.56,268.202,407.703z"/>
			</g>
		</g>
		<g>
			<g>
				<path style="fill:#263238;" d="M255.019,419.355c0,0.144-14.741,0.26-32.921,0.26c-18.186,0-32.924-0.117-32.924-0.26
					s14.738-0.26,32.924-0.26C240.278,419.095,255.019,419.212,255.019,419.355z"/>
			</g>
		</g>
	</g>
</g>
<g id="Speech_Bubble">
	<g>
		<g>
			<g>
				<g>
					<g>
						<g>
							<g>
								<g>
									<g>
										<polygon style="fill:#FFFFFF;" points="373.925,111.25 359.404,91.44 352.027,115.57 332.777,113.666 344.736,136.63 
											323.459,147.296 348.568,148.734 353.929,170.84 373.175,154.454 392.68,169.972 392.611,148.029 415.092,145.968 
											400.281,133.855 409.99,116.285 391.687,118.5 390.98,94.302 										"/>
									</g>
									<g>
										<g>
											<path style="fill:#263238;" d="M373.925,111.25c0,0,0.384-0.403,1.128-1.155c0.752-0.757,1.853-1.865,3.29-3.312
												c2.888-2.894,7.121-7.136,12.546-12.572l0.209-0.21l0.009,0.297c0.208,6.687,0.463,14.866,0.754,24.196l-0.196-0.169
												c5.569-0.682,11.739-1.437,18.299-2.24l0.389-0.048l-0.189,0.343c-3.038,5.511-6.286,11.404-9.691,17.58l-0.053-0.278
												c4.687,3.827,9.668,7.895,14.82,12.101l0.446,0.364l-0.574,0.053c-7.14,0.659-14.696,1.356-22.479,2.074l0.225-0.248
												c0.024,6.973,0.05,14.376,0.076,21.943l0.002,0.533l-0.417-0.332c-6.239-4.962-12.813-10.191-19.507-15.515l0.33-0.005
												c-2.007,1.709-4.166,3.548-6.337,5.396c-4.354,3.707-8.662,7.374-12.909,10.989l-0.321,0.273l-0.099-0.41
												c-1.823-7.524-3.611-14.903-5.356-22.107l0.232,0.194c-8.634-0.498-17.018-0.982-25.108-1.448l-0.912-0.052l0.816-0.409
												c7.397-3.702,14.497-7.256,21.284-10.653l-0.1,0.309c-4.234-8.15-8.224-15.829-11.937-22.975l-0.173-0.333l0.373,0.037
												c6.954,0.697,13.338,1.336,19.248,1.929l-0.187,0.125c2.896-9.408,5.375-17.46,7.424-24.115l0.076-0.246l0.151,0.208
												c4.655,6.405,8.254,11.358,10.698,14.722c1.216,1.681,2.143,2.963,2.775,3.837
												C373.606,110.79,373.925,111.25,373.925,111.25s-0.322-0.414-0.952-1.259c-0.639-0.86-1.576-2.121-2.805-3.776
												c-2.483-3.358-6.139-8.304-10.867-14.699l0.226-0.038c-2.023,6.663-4.47,14.725-7.33,24.143l-0.042,0.139l-0.145-0.014
												c-5.911-0.576-12.297-1.199-19.253-1.878l0.2-0.296c3.726,7.138,7.731,14.81,11.981,22.952l0.107,0.205l-0.207,0.104
												c-6.782,3.406-13.878,6.969-21.27,10.681l-0.095-0.461c8.091,0.46,16.475,0.936,25.109,1.427l0.188,0.011l0.044,0.183
												c1.749,7.203,3.54,14.581,5.366,22.104l-0.42-0.136c4.247-3.616,8.554-7.284,12.908-10.991
												c2.171-1.848,4.33-3.686,6.338-5.395l0.163-0.139l0.168,0.133c6.692,5.326,13.265,10.557,19.502,15.522l-0.415,0.201
												c-0.021-7.567-0.041-14.969-0.061-21.943l-0.001-0.227l0.226-0.021c7.785-0.709,15.341-1.398,22.482-2.049l-0.128,0.417
												c-5.145-4.215-10.12-8.29-14.801-12.124l-0.143-0.117l0.089-0.161c3.417-6.169,6.677-12.055,9.726-17.56l0.199,0.296
												c-6.563,0.785-12.734,1.523-18.305,2.19l-0.191,0.023l-0.005-0.192c-0.254-9.331-0.478-17.511-0.66-24.199l0.218,0.087
												c-5.495,5.416-9.784,9.641-12.709,12.524c-1.447,1.419-2.554,2.505-3.31,3.247
												C374.306,110.893,373.925,111.25,373.925,111.25z"/>
										</g>
									</g>
								</g>
							</g>
						</g>
					</g>
				</g>
			</g>
		</g>
		<g>
			<g>
				<g>
					<g>
						<path style="fill:#263238;" d="M379.161,122.496l-1.477,11.487c-0.121,0.939-0.923,1.641-1.87,1.636l0,0
							c-0.999-0.005-1.818-0.793-1.864-1.79l-0.53-11.675c-0.04-0.884,0.704-1.603,1.586-1.534l2.811,0.221
							C378.656,120.908,379.268,121.662,379.161,122.496z"/>
					</g>
				</g>
			</g>
			<g>
				<g>
					<g>
						<path style="fill:#263238;" d="M372.336,141.909c0.394,1.507,1.936,2.41,3.443,2.015c1.507-0.394,2.41-1.936,2.015-3.443
							c-0.394-1.507-1.936-2.41-3.443-2.015C372.844,138.86,371.942,140.402,372.336,141.909z"/>
					</g>
				</g>
			</g>
		</g>
		<g>
			<g>
				<g>
					<g>
						<path style="fill:#263238;" d="M369.444,121.867l-1.477,11.487c-0.121,0.939-0.923,1.641-1.87,1.636l0,0
							c-0.999-0.005-1.818-0.793-1.864-1.79l-0.529-11.675c-0.04-0.884,0.704-1.604,1.586-1.534l2.811,0.221
							C368.939,120.278,369.552,121.033,369.444,121.867z"/>
					</g>
				</g>
			</g>
			<g>
				<g>
					<g>
						<path style="fill:#263238;" d="M362.619,141.279c0.395,1.507,1.936,2.409,3.443,2.015c1.507-0.394,2.41-1.936,2.015-3.443
							c-0.394-1.507-1.936-2.409-3.443-2.015C363.128,138.231,362.225,139.772,362.619,141.279z"/>
					</g>
				</g>
			</g>
		</g>
	</g>
</g>
<g id="Character">
	<g>
		<g>
			<g>
				<g>
					<g>
						<g>
							<g>
								<g>
									<g>
										<g>
											<g>
												<g>
													<g>
														<path style="fill:#FFBF9D;" d="M282.043,191.16l8.199-48.15c2.429-11.911-2.477-23.253-14.451-25.352l-1.118-0.13
															c-11.25-1.301-21.617,6.25-23.818,17.359c-2.049,10.336-4.179,21.782-4.758,27.387
															c-1.197,11.604,10.183,14.747,10.183,14.747c0.026,0.004-1.034,7.015-1.573,10.396l5.887,6.66l0,0L282.043,191.16z"/>
													</g>
												</g>
											</g>
										</g>
									</g>
								</g>
							</g>
						</g>
					</g>
					<g>
						<g>
							<g>
								<g>
									<g>
										<g>
											<g>
												<g>
													<g>
														<g>
															<path style="fill:#FF9A6C;" d="M256.28,177.021c0,0,7.254,1.274,15.603-2.715c0,0-4.637,8.291-16.079,5.91
																L256.28,177.021z"/>
														</g>
													</g>
												</g>
											</g>
										</g>
									</g>
								</g>
							</g>
						</g>
					</g>
					<g>
						<g>
							<g>
								<g>
									<g>
										<g>
											<g>
												<g>
													<g>
														<g>
															<g>
																<g>
																	<g>
																		<g>
																			<g>
																				<g>
																					<path style="fill:#263238;" d="M253.032,146.065c-0.132,0.87,0.496,1.7,1.402,1.854
																						c0.905,0.154,1.746-0.424,1.878-1.295c0.132-0.87-0.495-1.701-1.4-1.855
																						C254.006,144.615,253.164,145.195,253.032,146.065z"/>
																				</g>
																			</g>
																		</g>
																	</g>
																</g>
															</g>
														</g>
													</g>
												</g>
											</g>
										</g>
									</g>
								</g>
							</g>
						</g>
					</g>
					<g>
						<g>
							<g>
								<g>
									<g>
										<g>
											<g>
												<g>
													<g>
														<g>
															<g>
																<g>
																	<g>
																		<g>
																			<g>
																				<g>
																					<g>
																						<path style="fill:#263238;" d="M252.726,140.289c0.18,0.24,1.541-0.543,3.321-0.332
																							c1.781,0.185,2.982,1.252,3.2,1.056c0.106-0.085-0.058-0.499-0.579-0.98
																							c-0.513-0.477-1.421-0.989-2.531-1.113c-1.11-0.122-2.09,0.178-2.675,0.534
																							C252.867,139.812,252.636,140.181,252.726,140.289z"/>
																					</g>
																				</g>
																			</g>
																		</g>
																	</g>
																</g>
															</g>
														</g>
													</g>
												</g>
											</g>
										</g>
									</g>
								</g>
							</g>
						</g>
					</g>
					<g>
						<g>
							<g>
								<g>
									<g>
										<g>
											<g>
												<g>
													<g>
														<g>
															<g>
																<g>
																	<g>
																		<g>
																			<g>
																				<g>
																					<path style="fill:#263238;" d="M269.001,147.665c-0.132,0.87,0.496,1.699,1.403,1.854
																						c0.905,0.154,1.746-0.424,1.878-1.294c0.132-0.87-0.496-1.701-1.401-1.855
																						C269.975,146.214,269.133,146.794,269.001,147.665z"/>
																				</g>
																			</g>
																		</g>
																	</g>
																</g>
															</g>
														</g>
													</g>
												</g>
											</g>
										</g>
									</g>
								</g>
							</g>
						</g>
					</g>
					<g>
						<g>
							<g>
								<g>
									<g>
										<g>
											<g>
												<g>
													<g>
														<g>
															<g>
																<g>
																	<g>
																		<g>
																			<g>
																				<g>
																					<g>
																						<path style="fill:#263238;" d="M270.133,142.721c0.181,0.24,1.543-0.542,3.322-0.332
																							c1.781,0.185,2.982,1.252,3.201,1.056c0.106-0.086-0.056-0.499-0.579-0.979
																							c-0.512-0.478-1.421-0.989-2.531-1.113c-1.11-0.122-2.09,0.179-2.675,0.534
																							C270.275,142.245,270.044,142.613,270.133,142.721z"/>
																					</g>
																				</g>
																			</g>
																		</g>
																	</g>
																</g>
															</g>
														</g>
													</g>
												</g>
											</g>
										</g>
									</g>
								</g>
							</g>
						</g>
					</g>
					<g>
						<g>
							<g>
								<g>
									<g>
										<g>
											<g>
												<g>
													<g>
														<g>
															<g>
																<g>
																	<g>
																		<g>
																			<g>
																				<g>
																					<path style="fill:#263238;" d="M262.162,155.665c0.02-0.1-1.065-0.42-2.832-0.857
																						c-0.449-0.099-0.87-0.239-0.91-0.559c-0.069-0.341,0.178-0.809,0.459-1.313
																						c0.555-1.051,1.136-2.153,1.745-3.307c2.438-4.714,4.259-8.61,4.068-8.707
																						c-0.191-0.096-2.322,3.646-4.759,8.359c-0.59,1.164-1.154,2.273-1.691,3.334
																						c-0.232,0.497-0.595,1.049-0.442,1.757c0.083,0.354,0.389,0.639,0.671,0.751
																						c0.281,0.123,0.537,0.157,0.76,0.197C261.025,155.628,262.144,155.765,262.162,155.665z"/>
																				</g>
																			</g>
																		</g>
																	</g>
																</g>
															</g>
														</g>
													</g>
												</g>
											</g>
										</g>
									</g>
								</g>
							</g>
						</g>
					</g>
					<g>
						<g>
							<g>
								<g>
									<g>
										<g>
											<g>
												<g>
													<g>
														<g>
															<g>
																<g>
																	<path style="fill:#263238;" d="M271.364,136.998c0.177,0.487,1.967,0.254,4.07,0.505
																		c2.109,0.209,3.805,0.822,4.084,0.385c0.124-0.21-0.172-0.668-0.858-1.139c-0.68-0.47-1.765-0.917-3.028-1.056
																		c-1.262-0.136-2.418,0.065-3.184,0.378C271.676,136.383,271.287,136.766,271.364,136.998z"/>
																</g>
															</g>
														</g>
													</g>
												</g>
											</g>
										</g>
									</g>
								</g>
							</g>
						</g>
					</g>
					<g>
						<g>
							<g>
								<g>
									<g>
										<g>
											<g>
												<g>
													<g>
														<g>
															<g>
																<g>
																	<path style="fill:#263238;" d="M253.425,134.583c0.305,0.46,1.813,0.267,3.55,0.519
																		c1.744,0.2,3.16,0.771,3.564,0.403c0.18-0.181,0.012-0.62-0.57-1.101c-0.573-0.478-1.582-0.954-2.778-1.109
																		c-1.196-0.154-2.286,0.049-2.953,0.367C253.559,133.979,253.293,134.361,253.425,134.583z"/>
																</g>
															</g>
														</g>
													</g>
												</g>
											</g>
										</g>
									</g>
								</g>
							</g>
						</g>
					</g>
					<g>
						<g>
							<g>
								<g>
									<g>
										<g>
											<g>
												<g>
													<path style="fill:#FFBF9D;" d="M288.303,151.48c0.207-0.063,8.234-1.434,7.064,6.459
														c-1.17,7.893-8.852,5.09-8.832,4.862C286.555,162.573,288.303,151.48,288.303,151.48z"/>
												</g>
											</g>
										</g>
									</g>
								</g>
							</g>
						</g>
					</g>
					<g>
						<g>
							<g>
								<g>
									<g>
										<g>
											<g>
												<g>
													<g>
														<path style="fill:#FF9A6C;" d="M289.389,160.168c0.038-0.02,0.123,0.116,0.34,0.258
															c0.211,0.137,0.59,0.266,1.025,0.173c0.879-0.182,1.777-1.402,2.026-2.819c0.127-0.715,0.077-1.422-0.093-2.025
															c-0.156-0.613-0.469-1.072-0.878-1.209c-0.404-0.158-0.738,0.049-0.867,0.257c-0.138,0.205-0.112,0.37-0.156,0.377
															c-0.025,0.016-0.15-0.158-0.038-0.474c0.056-0.152,0.176-0.325,0.384-0.449c0.212-0.126,0.502-0.164,0.79-0.088
															c0.602,0.132,1.067,0.773,1.255,1.437c0.221,0.671,0.293,1.467,0.151,2.27c-0.286,1.583-1.321,2.951-2.511,3.111
															c-0.577,0.063-1.015-0.173-1.227-0.395C289.375,160.361,289.359,160.179,289.389,160.168z"/>
													</g>
												</g>
											</g>
										</g>
									</g>
								</g>
							</g>
						</g>
					</g>
				</g>
				<g>
					<g>
						<g>
							<g>
								<g>
									<g>
										<g>
											<path style="fill:#263238;" d="M236.583,122.009c0.194-0.447,0.588-0.78,1.038-0.964
												c0.983-0.402,2.014-0.179,3.023-0.048c2.511,0.326,5.09,0.048,7.489-0.759c-0.721-0.508-1.378-1.094-1.906-1.801
												c-1.09-1.46-1.539-3.516-0.705-5.136c0.156-0.304,0.392-0.612,0.73-0.664c0.536-0.082,0.911,0.487,1.21,0.938
												c0.984,1.486,1.987,2.208,3.767,2.287c1.106,0.049,2.196-0.041,3.131-0.449c0.039-0.031,0.076-0.065,0.115-0.096
												c0.472-0.364,0.932-0.71,1.384-1.044c0.001-0.001,0.002-0.002,0.003-0.003l-0.001,0.002
												c3.401-2.512,6.253-4.18,9.038-4.854c4.081-0.989,10.619-0.675,14.484,0.966c3.865,1.642,6.998,5.43,6.955,9.629
												c2.532-1.576,5.914-1.066,8.497,0.439l0.073-0.02c2.898,1.536,4.163,5.02,4.609,8.27
												c0.024,0.178,0.042,0.357,0.063,0.535c0.794,1.79,1.994,3.399,3.527,4.619c0.271,0.215,0.578,0.475,0.565,0.821
												c-0.013,0.342-0.339,0.58-0.643,0.737c-0.81,0.418-1.714,0.638-2.624,0.667c0.171,0.782,0.394,1.55,0.699,2.296
												c0.26,0.635,0.567,1.395,0.177,1.959c-0.302,0.436-0.928,0.542-1.436,0.391c-0.508-0.152-0.927-0.507-1.329-0.852
												c0.222,0.866,0.443,1.732,0.665,2.599c-1.134,0.031-2.266-0.225-3.293-0.708c-1.076,2.821-2.353,8.149-3.392,10.015
												c-2.101-0.27-2.577-0.572-3.685-0.376c-1.433,0.254-1.265,2.75-2.944,1.803c-0.855-0.483-1.743-4.118-1.912-5.085
												c-1.116-6.416-0.826-13.071,0.837-19.367c-1.069-1.535-2.436-2.861-4.003-3.883l0.119,0.143
												c-3.064-1.593-6.555-3.229-9.839-2.162c-2.547,0.829-4.304,3.09-6.368,4.797c-3.911,3.236-8.013,4.67-13.063,4.152
												c-0.962,3.419-1.929,9.1-2.575,12.327l-1.826-6.916l-0.006,0.026c-0.169-0.414-0.298-0.826-0.421-1.237l-0.044-0.126
												l0.002-0.015c-0.194-0.66-0.374-1.32-0.644-1.984c-0.012,0.008-0.023,0.015-0.035,0.023
												c-1.989,1.297-4.239-1.459-2.572-3.151c0.33-0.336,0.709-0.622,1.127-0.844c-0.916,0.638-2.17,0.825-3.178,0.346
												c-1.009-0.479-1.672-1.667-1.419-2.755c0.173-0.742,0.808-1.336,1.53-1.534c-1.439-0.099-2.85-0.621-3.987-1.51
												C236.845,123.872,236.158,122.992,236.583,122.009z"/>
										</g>
									</g>
								</g>
							</g>
						</g>
					</g>
					<g>
						<g>
							<g>
								<g>
									<g>
										<g>
											<path style="fill:#455A64;" d="M282.508,120.81c-0.028,0.027,0.439,0.376,1.004,1.229
												c0.559,0.849,1.118,2.265,1.213,4.095c0.052,0.91,0.022,1.916-0.134,2.98c-0.151,1.065-0.403,2.192-0.66,3.381
												c-0.253,1.189-0.524,2.446-0.64,3.776c-0.058,0.664-0.076,1.346-0.031,2.037c0.049,0.679,0.117,1.419,0.532,2.058
												c0.328,0.519,0.96,0.821,1.55,0.786c0.592-0.018,1.151-0.25,1.588-0.615c0.87-0.759,1.216-1.832,1.543-2.775
												l-0.247-0.006c0.269,0.93,0.55,1.85,1.052,2.626c0.492,0.778,1.246,1.356,2.069,1.553
												c0.41,0.098,0.839,0.093,1.222-0.035c0.39-0.124,0.698-0.387,0.926-0.679c0.22-0.299,0.363-0.642,0.395-0.988
												c0.03-0.346-0.056-0.691-0.24-0.953l-0.139,0.091c0.743,1.145,1.604,1.828,2.21,2.225
												c0.306,0.199,0.556,0.328,0.725,0.411c0.172,0.079,0.262,0.115,0.266,0.108c0.004-0.007-0.081-0.057-0.244-0.149
												c-0.162-0.096-0.402-0.236-0.697-0.445c-0.584-0.415-1.413-1.108-2.12-2.24l-0.139,0.091
												c0.328,0.469,0.245,1.195-0.174,1.728c-0.211,0.262-0.492,0.495-0.835,0.599c-0.341,0.109-0.731,0.112-1.105,0.018
												c-0.755-0.188-1.458-0.729-1.916-1.468c-0.472-0.74-0.744-1.636-1.008-2.566l-0.112-0.395l-0.135,0.389
												c-0.326,0.941-0.678,1.969-1.47,2.652c-0.392,0.326-0.903,0.535-1.421,0.549c-0.521,0.024-1.031-0.221-1.318-0.667
												c-0.363-0.553-0.441-1.256-0.488-1.924c-0.044-0.674-0.028-1.342,0.027-1.995c0.11-1.309,0.374-2.558,0.62-3.747
												c0.25-1.19,0.495-2.323,0.638-3.402c0.148-1.079,0.168-2.099,0.102-3.024c-0.121-1.857-0.721-3.297-1.317-4.141
												C282.998,121.13,282.508,120.81,282.508,120.81z"/>
										</g>
									</g>
								</g>
							</g>
						</g>
					</g>
					<g>
						<g>
							<g>
								<g>
									<g>
										<g>
											<path style="fill:#455A64;" d="M245.121,126.829c-0.003,0.003,0.024,0.034,0.081,0.092
												c0.07,0.068,0.154,0.151,0.258,0.253c0.112,0.113,0.257,0.247,0.444,0.385c0.183,0.144,0.39,0.316,0.649,0.473
												c0.999,0.667,2.646,1.425,4.816,1.613c2.149,0.191,4.817-0.19,7.35-1.556c2.551-1.323,4.934-3.472,7-6.03
												c1.045-1.276,1.939-2.611,2.888-3.825c0.944-1.216,1.951-2.32,3.096-3.14c1.134-0.827,2.39-1.378,3.625-1.534
												c0.617-0.09,1.219-0.042,1.785,0.054c0.566,0.113,1.089,0.308,1.562,0.544c0.947,0.48,1.67,1.148,2.197,1.802
												c0.528,0.66,0.85,1.324,1.057,1.882c0.37,1.139,0.3,1.825,0.343,1.82c0.005,0,0.008-0.041,0.009-0.122
												c-0.001-0.098-0.002-0.217-0.003-0.362c-0.011-0.317-0.079-0.785-0.248-1.369c-0.194-0.574-0.509-1.258-1.038-1.943
												c-0.527-0.679-1.258-1.374-2.229-1.88c-0.485-0.249-1.024-0.455-1.609-0.578c-0.586-0.106-1.217-0.16-1.855-0.073
												c-1.281,0.152-2.58,0.714-3.743,1.555c-1.177,0.834-2.206,1.957-3.16,3.18c-0.959,1.222-1.854,2.553-2.889,3.817
												c-2.05,2.539-4.4,4.665-6.905,5.979c-2.488,1.358-5.097,1.749-7.217,1.587c-2.138-0.16-3.769-0.878-4.774-1.51
												C245.598,127.303,245.147,126.799,245.121,126.829z"/>
										</g>
									</g>
								</g>
							</g>
						</g>
					</g>
					<g>
						<g>
							<g>
								<g>
									<g>
										<g>
											<path style="fill:#455A64;" d="M244.811,121.598c-0.012,0.015,0.121,0.138,0.372,0.349
												c0.248,0.216,0.636,0.494,1.136,0.802c0.499,0.313,1.127,0.629,1.85,0.922c0.727,0.28,1.55,0.529,2.436,0.693
												c0.888,0.154,1.747,0.206,2.526,0.196c0.779-0.024,1.478-0.103,2.055-0.223c0.576-0.116,1.037-0.242,1.344-0.359
												c0.309-0.111,0.476-0.18,0.47-0.198c-0.016-0.049-0.702,0.186-1.847,0.367c-0.572,0.095-1.26,0.152-2.025,0.162
												c-0.764-0.004-1.605-0.062-2.475-0.213c-0.867-0.16-1.676-0.397-2.394-0.659c-0.713-0.275-1.339-0.567-1.843-0.854
												C245.405,122.016,244.843,121.558,244.811,121.598z"/>
										</g>
									</g>
								</g>
							</g>
						</g>
					</g>
				</g>
			</g>
			<g>
				<path style="fill:#FF9A6C;" d="M264.02,158.434c1.197,0.019,2.281,1.087,2.319,2.284c0.037,1.197-0.979,2.33-2.172,2.424
					c-1.194,0.093-2.374-0.868-2.523-2.056c-0.15-1.188,0.755-2.412,1.935-2.617"/>
			</g>
			<g>
				<g>
					<path style="fill:#263238;" d="M263.225,162.799c0.019-0.058,0.497,0.339,1.355,0.215c0.415-0.062,0.896-0.282,1.224-0.728
						c0.33-0.434,0.51-1.068,0.384-1.688c-0.13-0.621-0.537-1.133-0.996-1.438c-0.461-0.313-0.977-0.414-1.403-0.413
						c-0.866,0.012-1.35,0.342-1.372,0.287c-0.01-0.016,0.095-0.111,0.322-0.229c0.225-0.116,0.58-0.249,1.043-0.279
						c0.457-0.031,1.038,0.054,1.566,0.392c0.523,0.328,0.994,0.898,1.145,1.617c0.145,0.721-0.072,1.438-0.463,1.927
						c-0.391,0.504-0.963,0.734-1.424,0.771C263.644,163.306,263.188,162.802,263.225,162.799z"/>
				</g>
			</g>
		</g>
		<g>
			<g>
				<g>
					<g>
						<g>
							<g>
								<g>
									<g>
										<g>
											<g>
												<g>
													<g>
														<g>
															<g>
																<g>
																	<g>
																		<g>
																			<g>
																				<g>
																					<g>
																						<g>
																							<path style="fill:#455A64;" d="M123.573,404.885l-7.34,27.282c0,0-30.196,1.702-32.044,6.611l52.388,16.132
																								l13.181-42.04L123.573,404.885z"/>
																						</g>
																					</g>
																				</g>
																			</g>
																		</g>
																	</g>
																</g>
															</g>
														</g>
													</g>
												</g>
											</g>
										</g>
									</g>
								</g>
							</g>
						</g>
					</g>
					<g>
						<g>
							<g>
								<g>
									<g>
										<g>
											<g>
												<g>
													<g>
														<g>
															<g>
																<g>
																	<g>
																		<g>
																			<g>
																				<g>
																					<g>
																						<g>
																							<g>
																								<path style="fill:#E0E0E0;" d="M133.131,434.886c0.929,0.589,1.278,1.945,0.727,2.897
																									c-0.55,0.952-1.926,1.319-2.865,0.746c-0.938-0.573-1.408-2.187-0.754-3.072
																									c0.654-0.884,2.292-1.227,3.066-0.445"/>
																							</g>
																						</g>
																					</g>
																				</g>
																			</g>
																		</g>
																	</g>
																</g>
															</g>
														</g>
													</g>
												</g>
											</g>
										</g>
									</g>
								</g>
							</g>
						</g>
					</g>
					<g>
						<g>
							<g>
								<g>
									<g>
										<g>
											<g>
												<g>
													<g>
														<g>
															<g>
																<g>
																	<g>
																		<g>
																			<g>
																				<g>
																					<g>
																						<g>
																							<path style="fill:#263238;" d="M136.577,454.911l1.163-4.289l-50.664-13.863c0,0-2.644,0.297-2.887,2.021
																								L136.577,454.911z"/>
																						</g>
																					</g>
																				</g>
																			</g>
																		</g>
																	</g>
																</g>
															</g>
														</g>
													</g>
												</g>
											</g>
										</g>
									</g>
								</g>
							</g>
						</g>
					</g>
					<g>
						<g>
							<g>
								<g>
									<g>
										<g>
											<g>
												<g>
													<g>
														<g>
															<g>
																<g>
																	<g>
																		<g>
																			<g>
																				<g>
																					<g>
																						<g>
																							<g>
																								<path style="fill:#FFFFFF;" d="M115.466,431.64c-0.07,0.258,1.173,0.768,2.178,1.978
																									c1.037,1.184,1.345,2.492,1.612,2.463c0.251,0.023,0.34-1.624-0.903-3.067
																									C117.123,431.559,115.483,431.388,115.466,431.64z"/>
																							</g>
																						</g>
																					</g>
																				</g>
																			</g>
																		</g>
																	</g>
																</g>
															</g>
														</g>
													</g>
												</g>
											</g>
										</g>
									</g>
								</g>
							</g>
						</g>
					</g>
					<g>
						<g>
							<g>
								<g>
									<g>
										<g>
											<g>
												<g>
													<g>
														<g>
															<g>
																<g>
																	<g>
																		<g>
																			<g>
																				<g>
																					<g>
																						<g>
																							<g>
																								<path style="fill:#FFFFFF;" d="M109.272,432.22c-0.135,0.23,0.839,1.006,1.375,2.356
																									c0.575,1.334,0.434,2.571,0.692,2.638c0.228,0.115,0.866-1.329,0.168-2.994
																									C110.824,432.549,109.352,431.978,109.272,432.22z"/>
																							</g>
																						</g>
																					</g>
																				</g>
																			</g>
																		</g>
																	</g>
																</g>
															</g>
														</g>
													</g>
												</g>
											</g>
										</g>
									</g>
								</g>
							</g>
						</g>
					</g>
					<g>
						<g>
							<g>
								<g>
									<g>
										<g>
											<g>
												<g>
													<g>
														<g>
															<g>
																<g>
																	<g>
																		<g>
																			<g>
																				<g>
																					<g>
																						<g>
																							<g>
																								<path style="fill:#FFFFFF;" d="M104.126,437.836c0.215,0.126,0.965-1.043,0.74-2.646
																									c-0.214-1.605-1.25-2.529-1.424-2.349c-0.209,0.166,0.336,1.156,0.501,2.476
																									C104.138,436.631,103.879,437.732,104.126,437.836z"/>
																							</g>
																						</g>
																					</g>
																				</g>
																			</g>
																		</g>
																	</g>
																</g>
															</g>
														</g>
													</g>
												</g>
											</g>
										</g>
									</g>
								</g>
							</g>
						</g>
					</g>
					<g>
						<g>
							<g>
								<g>
									<g>
										<g>
											<g>
												<g>
													<g>
														<g>
															<g>
																<g>
																	<g>
																		<g>
																			<g>
																				<g>
																					<g>
																						<g>
																							<g>
																								<path style="fill:#FFFFFF;" d="M117.829,425.608c0.035,0.266,1.318,0.275,2.733,0.818
																									c1.427,0.515,2.403,1.346,2.604,1.168c0.205-0.139-0.602-1.425-2.278-2.041
																									C119.216,424.923,117.765,425.368,117.829,425.608z"/>
																							</g>
																						</g>
																					</g>
																				</g>
																			</g>
																		</g>
																	</g>
																</g>
															</g>
														</g>
													</g>
												</g>
											</g>
										</g>
									</g>
								</g>
							</g>
						</g>
					</g>
				</g>
			</g>
			<g>
				<g>
					<g>
						<g>
							<g>
								<g>
									<g>
										<g>
											<g>
												<g>
													<g>
														<g>
															<g>
																<g>
																	<g>
																		<g>
																			<g>
																				<g>
																					<g>
																						<g>
																							<g>
																								<path style="fill:#455A64;" d="M366.86,363.048l17.299-20.244c0,0,26.133,10.848,29.69,7.419
																									l-37.564-35.072l-28.232,30.433L366.86,363.048z"/>
																							</g>
																						</g>
																					</g>
																				</g>
																			</g>
																		</g>
																	</g>
																</g>
															</g>
														</g>
													</g>
												</g>
											</g>
										</g>
									</g>
								</g>
							</g>
						</g>
						<g>
							<g>
								<g>
									<g>
										<g>
											<g>
												<g>
													<g>
														<g>
															<g>
																<g>
																	<g>
																		<g>
																			<g>
																				<g>
																					<g>
																						<g>
																							<g>
																								<g>
																									<path style="fill:#E0E0E0;" d="M371.03,333.607c-0.542-0.88-0.284-2.177,0.567-2.763
																										c0.852-0.586,2.16-0.339,2.718,0.532c0.557,0.87,0.295,2.436-0.616,2.923
																										c-0.911,0.487-2.431,0.111-2.765-0.869"/>
																								</g>
																							</g>
																						</g>
																					</g>
																				</g>
																			</g>
																		</g>
																	</g>
																</g>
															</g>
														</g>
													</g>
												</g>
											</g>
										</g>
									</g>
								</g>
							</g>
						</g>
						<g>
							<g>
								<g>
									<g>
										<g>
											<g>
												<g>
													<g>
														<g>
															<g>
																<g>
																	<g>
																		<g>
																			<g>
																				<g>
																					<g>
																						<g>
																							<g>
																								<path style="fill:#263238;" d="M376.285,315.15l-2.727,3.179l37.036,32.438c0,0,2.349,0.824,3.255-0.545
																									L376.285,315.15z"/>
																							</g>
																						</g>
																					</g>
																				</g>
																			</g>
																		</g>
																	</g>
																</g>
															</g>
														</g>
													</g>
												</g>
											</g>
										</g>
									</g>
								</g>
							</g>
						</g>
						<g>
							<g>
								<g>
									<g>
										<g>
											<g>
												<g>
													<g>
														<g>
															<g>
																<g>
																	<g>
																		<g>
																			<g>
																				<g>
																					<g>
																						<g>
																							<g>
																								<g>
																									<path style="fill:#FFFFFF;" d="M384.59,343.565c0.164-0.191-0.675-1.132-1.029-2.572
																										c-0.392-1.431-0.118-2.67-0.354-2.754c-0.202-0.122-0.948,1.244-0.489,2.98
																										C383.161,342.959,384.473,343.773,384.59,343.565z"/>
																								</g>
																							</g>
																						</g>
																					</g>
																				</g>
																			</g>
																		</g>
																	</g>
																</g>
															</g>
														</g>
													</g>
												</g>
											</g>
										</g>
									</g>
								</g>
							</g>
						</g>
						<g>
							<g>
								<g>
									<g>
										<g>
											<g>
												<g>
													<g>
														<g>
															<g>
																<g>
																	<g>
																		<g>
																			<g>
																				<g>
																					<g>
																						<g>
																							<g>
																								<g>
																									<path style="fill:#FFFFFF;" d="M390.045,345.594c0.207-0.141-0.297-1.198-0.199-2.566
																										c0.059-1.37,0.682-2.366,0.491-2.529c-0.145-0.191-1.271,0.779-1.362,2.482
																										C388.871,344.682,389.879,345.767,390.045,345.594z"/>
																								</g>
																							</g>
																						</g>
																					</g>
																				</g>
																			</g>
																		</g>
																	</g>
																</g>
															</g>
														</g>
													</g>
												</g>
											</g>
										</g>
									</g>
								</g>
							</g>
						</g>
						<g>
							<g>
								<g>
									<g>
										<g>
											<g>
												<g>
													<g>
														<g>
															<g>
																<g>
																	<g>
																		<g>
																			<g>
																				<g>
																					<g>
																						<g>
																							<g>
																								<g>
																									<path style="fill:#FFFFFF;" d="M396.668,342.907c-0.13-0.195-1.238,0.495-1.701,1.952
																										c-0.474,1.454,0.023,2.663,0.242,2.58c0.244-0.056,0.188-1.122,0.587-2.312
																										C396.167,343.928,396.834,343.096,396.668,342.907z"/>
																								</g>
																							</g>
																						</g>
																					</g>
																				</g>
																			</g>
																		</g>
																	</g>
																</g>
															</g>
														</g>
													</g>
												</g>
											</g>
										</g>
									</g>
								</g>
							</g>
						</g>
						<g>
							<g>
								<g>
									<g>
										<g>
											<g>
												<g>
													<g>
														<g>
															<g>
																<g>
																	<g>
																		<g>
																			<g>
																				<g>
																					<g>
																						<g>
																							<g>
																								<g>
																									<path style="fill:#FFFFFF;" d="M380.142,347.74c0.079-0.241-0.998-0.771-1.969-1.81
																										c-0.992-1.019-1.476-2.125-1.718-2.055c-0.23,0.035-0.073,1.458,1.088,2.666
																										C378.695,347.758,380.098,347.97,380.142,347.74z"/>
																								</g>
																							</g>
																						</g>
																					</g>
																				</g>
																			</g>
																		</g>
																	</g>
																</g>
															</g>
														</g>
													</g>
												</g>
											</g>
										</g>
									</g>
								</g>
							</g>
						</g>
					</g>
				</g>
				<g>
					<path style="fill:#263238;" d="M227.966,326.347c0,0,67.642,81.882,81.259,85.104c22.294,5.275,70.695-59.461,70.695-59.461
						l-21.569-22.621l-43.471,37.708l-35.61-57.94L227.966,326.347z"/>
				</g>
				<g>
					<g>
						<path style="fill:#455A64;" d="M311.328,388.476c-0.035,0.007-0.126-0.289-0.26-0.834c-0.141-0.543-0.287-1.344-0.413-2.341
							c-0.257-1.991-0.328-4.797,0.149-7.837c0.486-3.04,1.419-5.687,2.278-7.502c0.427-0.909,0.813-1.626,1.115-2.099
							c0.296-0.477,0.474-0.731,0.505-0.713c0.077,0.044-0.522,1.126-1.282,2.96c-0.763,1.831-1.623,4.447-2.101,7.435
							c-0.468,2.989-0.457,5.742-0.297,7.719C311.178,387.243,311.414,388.458,311.328,388.476z"/>
					</g>
				</g>
			</g>
			<g>
				<path style="fill:#263238;" d="M115.691,415.975c0,0,28.961-95.288,36.714-109.587c5.297-9.768,44.921-9.85,44.921-9.85
					l83.299,0.082c0,0,6.423,12.268,3.287,27.417c-2.378,11.489-13.307,19.705-23.395,21.931
					c-8.062,1.779-15.336,0.438-15.336,0.438l-64.745-8.619c0,0-0.563,6.157-3.941,16.007c-3.378,9.85-29.038,76.957-29.038,76.957
					L115.691,415.975z"/>
			</g>
			<g style="opacity:0.3;">
				<g>
					<path d="M284.82,318.505c-1.199,6.859-5.043,13.994-10.196,18.677c-5.153,4.683-12.875,8.059-19.817,8.597l-8.664-0.487
						c1.331,0.722,3.117,2.45,4.448,3.172c8.581,5.826,21.121,4.96,28.794-2.027C287.11,339.403,289.946,327.608,284.82,318.505z"/>
				</g>
			</g>
			<g>
				<g>
					<path style="fill:#455A64;" d="M285.299,316.796c0.018,0.001,0.016,0.202-0.004,0.585c-0.032,0.381-0.033,0.951-0.141,1.672
						c-0.159,1.449-0.552,3.536-1.371,6.018c-0.813,2.482-2.13,5.336-4.085,8.195c-1.947,2.857-4.581,5.681-7.828,8.021
						c-3.273,2.306-6.803,3.874-10.14,4.781c-3.341,0.915-6.469,1.227-9.08,1.185c-2.613-0.036-4.715-0.346-6.135-0.669
						c-0.717-0.133-1.255-0.318-1.626-0.413c-0.368-0.106-0.559-0.169-0.555-0.187c0.012-0.046,0.794,0.145,2.219,0.401
						c1.424,0.26,3.513,0.511,6.097,0.5c2.582-0.005,5.665-0.352,8.951-1.279c3.283-0.92,6.749-2.476,9.967-4.743
						c3.192-2.301,5.795-5.068,7.736-7.87c1.949-2.803,3.284-5.603,4.132-8.042c0.854-2.439,1.3-4.496,1.519-5.926
						C285.177,317.594,285.251,316.792,285.299,316.796z"/>
				</g>
			</g>
			<g>
				<g>
					<path style="fill:#455A64;" d="M171.708,321.703c0.046-0.043,0.835,0.695,1.951,2.038c1.116,1.339,2.526,3.31,3.793,5.658
						c1.263,2.351,2.132,4.613,2.636,6.282c0.506,1.67,0.688,2.736,0.627,2.75c-0.079,0.02-0.386-1.009-0.976-2.633
						c-0.589-1.624-1.499-3.833-2.745-6.152c-1.25-2.316-2.592-4.292-3.624-5.678C172.338,322.58,171.647,321.757,171.708,321.703z"
						/>
				</g>
			</g>
		</g>
		<g>
			<g>
				<g>
					<path style="fill:#FFBF9D;" d="M328.688,275.208c0,0-1.615,6.442-3.209,7.729c0,0-12.151,11.319-12.729,11.786
						c-0.578,0.466-2.437,1.192-3.295,0.573c-0.858-0.619-0.835-2.069-0.835-2.069s-3.008,1.593-4.171,0.743
						c-1.163-0.85-0.646-1.983-0.646-1.983s-2.272,0.88-3.503-0.572c-1.231-1.451-0.747-3.511-0.747-3.511s-1.98,1.241-2.964-0.052
						c-0.984-1.293-1.015-3.474-1.015-3.474l0,0l1.865-2.639c0,0,5.091-5.661,6.643-7.212c1.551-1.55,7.736-3.123,10.234-3.648
						l6.277-7.495L328.688,275.208z"/>
				</g>
			</g>
			<g>
				<g>
					<path style="fill:#FFBF9D;" d="M325.478,282.937l-7.448-16.062c0,0,8.747-11.645,12.959-19.269
						c4.212-7.624,2.555-7.092,2.555-7.092s-5.197-3.286-12.558-5.983c-7.361-2.697-16.34-8.381-16.34-8.381
						s-12.719-6.242-14.836-10.292c-2.118-4.05-2.835-13.261,1.769-16.594c1.151-0.833,2.609-1.434,4.149-1.868
						c5.185-1.459,10.746-0.669,15.483,1.894c7.495,4.055,20.187,10.913,22.016,11.85c0,0,21.268,12.935,23.606,15.063
						c5.702,5.192,7.61,11.401,1.399,20.662C352.324,255.673,325.478,282.937,325.478,282.937z"/>
				</g>
			</g>
			<g>
				<g>
					<path style="fill:#FF9A6C;" d="M333.437,242.259c-0.059-0.016,0.076-0.816,0.59-2.017c0.509-1.198,1.458-2.769,2.868-4.19
						c1.416-1.417,2.984-2.372,4.18-2.885c1.199-0.519,1.998-0.657,2.014-0.598c0.079,0.163-3.072,1.081-5.806,3.87
						C334.506,239.183,333.6,242.337,333.437,242.259z"/>
				</g>
			</g>
		</g>
		<g>
			<g>
				<g>
					<g>
						<path style="fill:#FF725E;" d="M245.997,186.746c-1.237,0.646-15.886,22.146-18.316,25.936
							c-2.43,3.79-9.684,66.612-9.684,66.612l-1.532,17.856l70.272,3.973c2.749,0.32,4.923-2.287,4.113-4.934l-4.472-14.621
							c-1.374-4.491-1.418-9.283-0.129-13.798l12.108-42.408l13.724-8.398l-20.157-27.048l-9.389-1.462L245.997,186.746z"/>
					</g>
				</g>
			</g>
			<g>
				<path style="fill:#FF725E;" d="M328.787,205.312l-19.721,26.857c0,0-28.558-17.022-29.58-23.591
					c-0.124-0.795-0.22-1.62-0.295-2.458c-0.791-8.895,6.266-16.697,15.188-16.323c0.08,0.003,0.159,0.007,0.239,0.011
					C302.594,190.227,328.787,205.312,328.787,205.312z"/>
			</g>
			<g>
				<path style="fill:#FF725E;" d="M210.428,226.982l-6.003-30.313c0,0,31.924-10.76,39.227-10.189
					c7.303,0.571,12.316,3.304,12.316,3.304l-22.433,30.451L210.428,226.982z"/>
			</g>
			<g>
				<g>
					<path style="fill:#263238;" d="M230.144,198.474c0.009,0,0.007,0.072-0.004,0.214c-0.019,0.174-0.042,0.381-0.069,0.632
						c-0.091,0.595-0.212,1.395-0.365,2.401c-0.354,2.13-0.851,5.126-1.463,8.807c-1.252,7.433-2.974,17.702-4.75,29.062
						c-1.786,11.363-3.224,21.675-4.166,29.152c-0.451,3.74-0.827,6.767-1.045,8.862c-0.119,1.01-0.214,1.813-0.285,2.41
						c-0.071,0.551-0.117,0.839-0.135,0.837c-0.018-0.002-0.007-0.293,0.03-0.847c0.047-0.6,0.109-1.407,0.188-2.421
						c0.156-2.103,0.476-5.137,0.881-8.886c0.849-7.493,2.231-17.82,4.018-29.188c1.776-11.365,3.556-21.628,4.902-29.045
						c0.68-3.669,1.233-6.655,1.626-8.778c0.193-0.998,0.347-1.792,0.461-2.383C230.069,198.761,230.125,198.474,230.144,198.474z"
						/>
				</g>
			</g>
			<g>
				<g>
					<path style="fill:#263238;" d="M304.408,218.897c-0.03,0.094-1.105-0.28-2.901-0.496c-0.896-0.116-1.974-0.146-3.163-0.081
						c-1.187,0.092-2.485,0.295-3.808,0.67c-1.318,0.394-2.522,0.919-3.574,1.478c-1.038,0.583-1.932,1.187-2.626,1.766
						c-1.399,1.145-2.106,2.038-2.181,1.975c-0.028-0.022,0.13-0.258,0.444-0.667c0.304-0.417,0.815-0.967,1.499-1.588
						c0.679-0.629,1.574-1.281,2.63-1.904c1.068-0.599,2.305-1.155,3.663-1.56c1.363-0.387,2.704-0.582,3.927-0.649
						c1.225-0.041,2.331,0.029,3.241,0.195c0.91,0.157,1.636,0.347,2.117,0.535C304.16,218.749,304.42,218.863,304.408,218.897z"/>
				</g>
			</g>
			<g>
				<g>
					<path style="fill:#263238;" d="M281.47,218.165c-0.029,0.015-0.291-0.406-0.704-1.199c-0.413-0.793-0.976-1.962-1.552-3.459
						c-0.566-1.499-1.143-3.335-1.466-5.444c-0.33-2.103-0.36-4.489,0.139-6.912c0.509-2.418,1.528-4.618,2.896-6.281
						c1.362-1.67,2.99-2.799,4.461-3.471c1.482-0.665,2.793-0.897,3.691-0.94c0.451-0.017,0.8-0.015,1.036,0.015
						c0.236,0.021,0.358,0.04,0.357,0.058c0.027,0.131-2.063-0.188-4.927,1.199c-1.405,0.693-2.954,1.815-4.244,3.438
						c-1.295,1.615-2.267,3.742-2.761,6.087c-0.992,4.747,0.139,9.163,1.163,12.123c0.526,1.497,1.034,2.682,1.389,3.498
						C281.304,217.695,281.504,218.147,281.47,218.165z"/>
				</g>
			</g>
			<g>
				<g>
					<path style="fill:#263238;" d="M266.728,264.317c0.017,0.032-0.52,0.35-1.505,0.899c-0.984,0.55-2.422,1.323-4.208,2.258
						c-3.571,1.872-8.55,4.374-14.119,6.99c-5.572,2.615-10.677,4.848-14.398,6.401c-1.86,0.777-3.373,1.389-4.425,1.795
						c-1.051,0.407-1.639,0.617-1.653,0.584c-0.014-0.033,0.548-0.306,1.575-0.77c1.108-0.495,2.577-1.151,4.357-1.946
						c3.681-1.638,8.757-3.922,14.323-6.534c5.563-2.613,10.562-5.06,14.173-6.847c1.749-0.862,3.193-1.574,4.281-2.11
						C266.143,264.543,266.711,264.285,266.728,264.317z"/>
				</g>
			</g>
		</g>
		<g>
			<g>
				<g>
					<g>
						<g>
							<g>
								<g>
									<path style="fill:#FFBF9D;" d="M177.363,172.472c0,0-19.566,42.513-18.244,49.639c1.43,7.715,6.1,10.028,15.224,8.791
										c9.124-1.237,35.059-9.105,35.059-9.105l-4.758-24.026l-23.581,6.842l10.41-31.37L177.363,172.472z"/>
								</g>
							</g>
						</g>
					</g>
					<g>
						<g>
							<g>
								<g>
									<g>
										<path style="fill:#FF9A6C;" d="M179.12,222.406c-0.187-0.074,1.679-3.743,2.238-8.686
											c0.613-4.938-0.345-8.926-0.145-8.956c0.069-0.018,0.4,0.949,0.657,2.581c0.259,1.628,0.389,3.929,0.094,6.444
											c-0.302,2.514-0.967,4.725-1.6,6.251C179.732,221.571,179.184,222.439,179.12,222.406z"/>
									</g>
								</g>
							</g>
						</g>
					</g>
				</g>
				<g>
					<g>
						<g>
							<g>
								<g>
									<g>
										<path style="fill:#455A64;" d="M208.468,142.581c-0.067,0.165-2.371-0.626-5.147-1.767
											c-2.778-1.141-4.974-2.199-4.907-2.364c0.066-0.164,2.37,0.627,5.148,1.768
											C206.338,141.358,208.535,142.416,208.468,142.581z"/>
									</g>
								</g>
							</g>
						</g>
					</g>
					<g>
						<path style="fill:#FFBF9D;" d="M198.331,158.076c-1.328-0.143-4.692,1.588-7.525,5.021c-0.048,0.053-0.097,0.096-0.144,0.15
							c-2.007,2.3-3.293-4.732-3.438-7.328c-0.094-1.684-1.82-2.829-3.482-2.333l-8.848,3.477l-1.379-0.044
							c-1.295,0.387-2.089,3.098-1.842,4.391l2.284,12.052c0.676,2.685,1.981,3.567,3.809,5.635l12.895-3.409
							c0.327-1.063,1.603-6.242,2.156-7.665c0.497-1.279,1.217-2.48,2.13-3.521c0.957-1.091,2.251-2.463,3.312-3.212
							c0.096-0.053,0.204-0.132,0.294-0.173c0.216-0.1,0.379-0.241,0.518-0.395C200.002,159.833,199.627,158.215,198.331,158.076z"
							/>
					</g>
					<g>
						<g>
							<g>
								<g>
									<g>
										<path style="fill:#FF725E;" d="M191.905,130.429c0,0-8.692-1.295-21.543-12.151c-12.85-10.856-19.578-26.023-21.047-25.84
											c-1.469,0.183-8.115-2.376-18.515,25.488c-10.399,27.865-5.147,33.778-2.713,33.551c2.433-0.228,18.66-6.099,29.077-5.66
											c10.416,0.439,24.074,4.928,24.074,4.928L191.905,130.429z"/>
									</g>
								</g>
							</g>
						</g>
					</g>
					<g>
						<g>
							<g>
								<g>
									<g>
										<path style="fill:#263238;" d="M209.848,144.576l-2.384,5.471l-1.068,2.451c-1.465,3.362-5.284,4.98-8.69,3.683
											l-17.717-4.84l8.454-23.892l17.926,8.049C209.808,137.042,211.364,141.099,209.848,144.576z"/>
									</g>
								</g>
							</g>
						</g>
					</g>
					<g>
						<g>
							<g>
								<g>
									<g>
										<path style="fill:#263238;" d="M202.371,151.204l-6.577,11.132l-2.862-1.007l-20.047,14.36l-4.639-10.845
											c0,0,11.566-4.147,13.909-8.054c2.342-3.907-0.002-4.982-0.002-4.982l5.688-5.717L202.371,151.204z"/>
									</g>
								</g>
							</g>
						</g>
					</g>
					<g>
						<g>
							<g>
								<g>
									<g>
										<path style="fill:#263238;" d="M131.759,118.619c-5.483,14.956-7.285,28.064-4.025,29.277
											c3.26,1.213,10.347-9.928,15.83-24.884c5.482-14.956,7.284-28.063,4.024-29.276
											C144.329,92.522,137.242,103.663,131.759,118.619z"/>
									</g>
								</g>
							</g>
						</g>
					</g>
					<g>
						<g>
							<g>
								<g>
									<g>
										<path style="fill:#455A64;" d="M207.189,146.189c-0.061,0.167-2.603-0.626-5.675-1.77
											c-3.075-1.145-5.516-2.208-5.455-2.374c0.061-0.166,2.601,0.626,5.676,1.771
											C204.808,144.96,207.249,146.023,207.189,146.189z"/>
									</g>
								</g>
							</g>
						</g>
					</g>
					<g>
						<g>
							<g>
								<g>
									<g>
										<path style="fill:#455A64;" d="M205.522,149.998c-0.02,0.087-0.618-0.008-1.578-0.233
											c-0.479-0.113-1.048-0.258-1.678-0.428c-0.627-0.18-1.283-0.458-1.985-0.72c-2.8-1.075-4.957-2.17-4.899-2.322
											c0.068-0.18,2.35,0.655,5.124,1.72c0.695,0.26,1.344,0.554,1.95,0.76c0.608,0.199,1.155,0.386,1.611,0.552
											C204.982,149.661,205.542,149.912,205.522,149.998z"/>
									</g>
								</g>
							</g>
						</g>
					</g>
					<g>
						<g>
							<g>
								<g>
									<g>
										<path style="fill:#FAFAFA;" d="M144.774,114.452c0,0-7.738-4.105-11.09,6.28c-3.352,10.386,4.566,11.49,4.566,11.49
											C141.094,127.005,143.288,121.102,144.774,114.452z"/>
									</g>
								</g>
							</g>
						</g>
					</g>
					<g>
						<g>
							<g>
								<g>
									<g>
										<path style="fill:#263238;" d="M151.82,101.857c0.044,0.004-0.014,0.697-0.156,1.95c-0.148,1.25-0.355,3.065-0.677,5.298
											c-0.238,1.105-0.498,2.312-0.777,3.606c-0.141,0.649-0.288,1.319-0.439,2.009c-0.076,0.345-0.153,0.695-0.231,1.05
											c-0.087,0.353-0.208,0.701-0.312,1.059c-0.437,1.427-0.895,2.924-1.371,4.476c-0.12,0.388-0.24,0.779-0.362,1.174
											c-0.117,0.396-0.296,0.774-0.442,1.166c-0.31,0.779-0.624,1.569-0.942,2.369c-0.319,0.8-0.635,1.589-0.946,2.368
											c-0.163,0.386-0.294,0.783-0.48,1.151c-0.183,0.37-0.365,0.737-0.545,1.1c-0.721,1.452-1.418,2.853-2.082,4.189
											c-0.17,0.331-0.322,0.667-0.502,0.983c-0.188,0.311-0.372,0.619-0.555,0.921c-0.366,0.605-0.72,1.192-1.064,1.76
											c-0.688,1.13-1.329,2.184-1.916,3.15c-1.297,1.833-2.39,3.283-3.141,4.289c-0.756,1.003-1.191,1.544-1.227,1.519
											c-0.036-0.026,0.331-0.617,1.024-1.664c0.721-1.068,1.732-2.566,2.975-4.407c0.562-0.971,1.176-2.031,1.835-3.168
											c0.331-0.568,0.674-1.156,1.027-1.76c0.177-0.302,0.356-0.609,0.538-0.919c0.174-0.315,0.322-0.652,0.487-0.982
											c0.649-1.332,1.329-2.73,2.035-4.178c0.177-0.362,0.355-0.727,0.536-1.095c0.184-0.366,0.312-0.761,0.473-1.145
											c0.308-0.774,0.62-1.559,0.936-2.353c0.317-0.794,0.63-1.578,0.938-2.351c0.147-0.389,0.326-0.764,0.443-1.156
											c0.122-0.391,0.244-0.779,0.364-1.164c0.484-1.537,0.952-3.02,1.397-4.434c0.108-0.354,0.232-0.699,0.322-1.049
											c0.082-0.352,0.163-0.698,0.243-1.04c0.16-0.683,0.316-1.347,0.467-1.989c0.305-1.281,0.588-2.476,0.849-3.57
											c0.365-2.191,0.662-3.974,0.874-5.245C151.635,102.536,151.776,101.852,151.82,101.857z"/>
									</g>
								</g>
							</g>
						</g>
					</g>
					<g>
						<g>
							<g>
								<g>
									<g>
										<g>
											<path style="fill:#FFBF9D;" d="M181.458,150.477c-1.002,0.36-1.559,1.485-1.262,2.551
												c0.569,2.041,1.494,5.246,2.217,7.199c0.233,0.629,0.486,1.27,0.928,1.759c0.442,0.489,1.119,0.799,1.736,0.608
												c0.652-0.202,1.072-0.91,1.167-1.617c0.095-0.708-0.07-1.421-0.242-2.11c-0.475-1.905-1.321-4.763-2.052-7.092
												C183.607,150.687,182.491,150.106,181.458,150.477L181.458,150.477z"/>
										</g>
									</g>
								</g>
							</g>
						</g>
						<g>
							<g>
								<g>
									<g>
										<g>
											<path style="fill:#FFBF9D;" d="M178.454,153.972c-1.002,0.36-1.559,1.485-1.262,2.551
												c0.569,2.041,1.495,5.247,2.217,7.199c0.233,0.629,0.486,1.27,0.927,1.759c0.442,0.489,1.119,0.799,1.737,0.608
												c0.652-0.201,1.072-0.91,1.167-1.617c0.096-0.707-0.07-1.421-0.242-2.11c-0.475-1.905-1.321-4.763-2.052-7.092
												C180.604,154.182,179.488,153.601,178.454,153.972L178.454,153.972z"/>
										</g>
									</g>
								</g>
							</g>
						</g>
						<g>
							<g>
								<g>
									<g>
										<g>
											<path style="fill:#FFBF9D;" d="M175.637,156.129c-0.906,0.309-1.407,1.282-1.135,2.206c0.52,1.77,1.365,4.548,2.023,6.24
												c0.212,0.546,0.443,1.101,0.844,1.526c0.401,0.424,1.014,0.695,1.572,0.531c0.589-0.173,0.967-0.785,1.052-1.398
												c0.085-0.612-0.067-1.231-0.225-1.828c-0.434-1.651-1.207-4.129-1.874-6.147
												C177.582,156.317,176.571,155.811,175.637,156.129L175.637,156.129z"/>
										</g>
									</g>
								</g>
							</g>
						</g>
						<g>
							<g>
								<g>
									<g>
										<g>
											<path style="fill:#FFBF9D;" d="M172.08,156.682c-0.91,0.31-1.413,1.288-1.141,2.216c0.522,1.778,1.372,4.569,2.033,6.27
												c0.213,0.548,0.445,1.106,0.848,1.533c0.403,0.426,1.019,0.698,1.58,0.533c0.592-0.174,0.972-0.789,1.057-1.404
												c0.085-0.615-0.068-1.236-0.226-1.837c-0.436-1.659-1.212-4.148-1.883-6.176
												C174.034,156.87,173.018,156.362,172.08,156.682L172.08,156.682z"/>
										</g>
									</g>
								</g>
							</g>
						</g>
						<g>
							<g>
								<g>
									<g>
										<g>
											<path style="fill:#FF9A6C;" d="M183.15,162.053c-0.193,0.067-0.918-1.553-1.62-3.617
												c-0.702-2.064-1.115-3.791-0.923-3.858c0.193-0.066,0.918,1.553,1.62,3.617
												C182.929,160.259,183.342,161.986,183.15,162.053z"/>
										</g>
									</g>
								</g>
							</g>
						</g>
						<g>
							<g>
								<g>
									<g>
										<g>
											<path style="fill:#FF9A6C;" d="M179.933,164.907c-0.194,0.061-0.963-1.803-1.717-4.162
												c-0.754-2.36-1.209-4.327-1.017-4.394c0.192-0.067,0.961,1.796,1.717,4.163
												C179.673,162.878,180.128,164.846,179.933,164.907z"/>
										</g>
									</g>
								</g>
							</g>
						</g>
						<g>
							<g>
								<g>
									<g>
										<g>
											<path style="fill:#FF9A6C;" d="M176.761,165.103c-0.182,0.083-1.061-1.497-1.772-3.601
												c-0.716-2.103-0.98-3.894-0.785-3.941c0.201-0.05,0.779,1.633,1.483,3.701
												C176.386,163.331,176.951,165.018,176.761,165.103z"/>
										</g>
									</g>
								</g>
							</g>
						</g>
					</g>
				</g>
			</g>
			<g>
				<g>
					<path style="fill:#263238;" d="M110.689,138.241c0.032,0.14-6.923,1.861-15.533,3.844c-8.613,1.983-15.619,3.477-15.651,3.337
						c-0.032-0.14,6.921-1.861,15.534-3.844C103.649,139.595,110.657,138.101,110.689,138.241z"/>
				</g>
			</g>
			<g>
				<g>
					<path style="fill:#263238;" d="M116.454,122.451c-0.001,0.144-11.718,0.196-26.169,0.117
						c-14.455-0.079-26.169-0.259-26.168-0.403c0.001-0.144,11.716-0.196,26.171-0.117
						C104.739,122.127,116.455,122.307,116.454,122.451z"/>
				</g>
			</g>
			<g>
				<g>
					<path style="fill:#263238;" d="M120.096,113.515c-0.063,0.129-8.785-4.012-19.479-9.248
						c-10.698-5.238-19.315-9.588-19.252-9.717c0.063-0.129,8.784,4.011,19.481,9.249
						C111.54,109.036,120.159,113.386,120.096,113.515z"/>
				</g>
			</g>
			<g>
				<g>
					<path style="fill:#263238;" d="M128.879,104.874c-0.12,0.079-6.278-9.059-13.752-20.407
						c-7.477-11.352-13.439-20.616-13.318-20.695c0.12-0.079,6.277,9.057,13.753,20.409
						C123.036,95.529,128.999,104.795,128.879,104.874z"/>
				</g>
			</g>
		</g>
	</g>
</g>
</svg>
